<?xml version="1.0" standalone="no"?>
<!DOCTYPE svg PUBLIC "-//W3C//DTD SVG 20010904//EN"
 "http://www.w3.org/TR/2001/REC-SVG-20010904/DTD/svg10.dtd">
<svg version="1.0" xmlns="http://www.w3.org/2000/svg"
 width="260.000000pt" height="260.000000pt" viewBox="0 0 260.000000 260.000000"
 preserveAspectRatio="xMidYMid meet">
<metadata>
Created by potrace 1.11, written by Peter Selinger 2001-2013
</metadata>
<g transform="translate(0.000000,260.000000) scale(0.100000,-0.100000)"
fill="#000000" stroke="none">
<path d="M580 2589 c-187 -10 -284 -44 -387 -134 -111 -97 -168 -224 -180
-396 -9 -133 -8 -1443 1 -1529 21 -204 71 -298 226 -424 54 -44 144 -73 275
-91 53 -7 1534 -8 1577 -1 18 3 46 8 61 10 151 24 286 120 367 261 36 62 57
140 66 243 9 101 9 1469 0 1547 -11 96 -34 181 -63 237 -39 75 -145 178 -224
217 -123 60 -167 63 -924 65 -374 0 -732 -2 -795 -5z"/>
</g>
</svg>
