<?xml version="1.0" encoding="iso-8859-1"?>
<!-- Generator: Adobe Illustrator 19.0.0, SVG Export Plug-In . SVG Version: 6.00 Build 0)  -->
<svg version="1.1" id="Capa_1" xmlns="http://www.w3.org/2000/svg" xmlns:xlink="http://www.w3.org/1999/xlink" x="0px" y="0px"
	 viewBox="0 0 496 496" style="enable-background:new 0 0 496 496;" xml:space="preserve" fill="url(#grad1)">
	  <defs>
	    <linearGradient id="grad1" x1="0%" y1="100%" x2="100%" y2="0%">
	      <stop offset="0%" style="stop-color:#ff90e1;stop-opacity:1" />
	      <stop offset="100%" style="stop-color:#28b1ff;stop-opacity:1" />
	    </linearGradient>
	  </defs>	 
<g>
	<g>
		<g>
			<path d="M144,46.528V80h16V46.528c9.288-3.312,16-12.112,16-22.528c0-13.232-10.768-24-24-24s-24,10.768-24,24
				C128,34.416,134.712,43.216,144,46.528z M152,16c4.408,0,8,3.592,8,8s-3.592,8-8,8s-8-3.592-8-8S147.592,16,152,16z"/>
			<path d="M208,46.528V80h16V46.528c9.288-3.312,16-12.112,16-22.528c0-13.232-10.768-24-24-24s-24,10.768-24,24
				C192,34.416,198.712,43.216,208,46.528z M216,16c4.408,0,8,3.592,8,8s-3.592,8-8,8s-8-3.592-8-8S211.592,16,216,16z"/>
			<path d="M272,46.528V80h16V46.528c9.288-3.312,16-12.112,16-22.528c0-13.232-10.768-24-24-24s-24,10.768-24,24
				C256,34.416,262.712,43.216,272,46.528z M280,16c4.408,0,8,3.592,8,8s-3.592,8-8,8c-4.408,0-8-3.592-8-8S275.592,16,280,16z"/>
			<path d="M336,46.528V80h16V46.528c9.288-3.312,16-12.112,16-22.528c0-13.232-10.768-24-24-24s-24,10.768-24,24
				C320,34.416,326.712,43.216,336,46.528z M344,16c4.408,0,8,3.592,8,8s-3.592,8-8,8c-4.408,0-8-3.592-8-8S339.592,16,344,16z"/>
			<path d="M24,320c-13.232,0-24,10.768-24,24s10.768,24,24,24c10.416,0,19.216-6.712,22.528-16H80v-16H46.528
				C43.216,326.712,34.416,320,24,320z M24,352c-4.408,0-8-3.592-8-8c0-4.408,3.592-8,8-8s8,3.592,8,8C32,348.408,28.408,352,24,352
				z"/>
			<path d="M24,256c-13.232,0-24,10.768-24,24s10.768,24,24,24c10.416,0,19.216-6.712,22.528-16H80v-16H46.528
				C43.216,262.712,34.416,256,24,256z M24,288c-4.408,0-8-3.592-8-8c0-4.408,3.592-8,8-8s8,3.592,8,8C32,284.408,28.408,288,24,288
				z"/>
			<path d="M24,192c-13.232,0-24,10.768-24,24s10.768,24,24,24c10.416,0,19.216-6.712,22.528-16H80v-16H46.528
				C43.216,198.712,34.416,192,24,192z M24,224c-4.408,0-8-3.592-8-8s3.592-8,8-8s8,3.592,8,8S28.408,224,24,224z"/>
			<path d="M24,128c-13.232,0-24,10.768-24,24s10.768,24,24,24c10.416,0,19.216-6.712,22.528-16H80v-16H46.528
				C43.216,134.712,34.416,128,24,128z M24,160c-4.408,0-8-3.592-8-8s3.592-8,8-8s8,3.592,8,8S28.408,160,24,160z"/>
			<path d="M352,449.472V416h-16v33.472c-9.288,3.312-16,12.112-16,22.528c0,13.232,10.768,24,24,24s24-10.768,24-24
				C368,461.584,361.288,452.784,352,449.472z M344,480c-4.408,0-8-3.592-8-8c0-4.408,3.592-8,8-8c4.408,0,8,3.592,8,8
				C352,476.408,348.408,480,344,480z"/>
			<path d="M288,449.472V416h-16v33.472c-9.288,3.312-16,12.112-16,22.528c0,13.232,10.768,24,24,24s24-10.768,24-24
				C304,461.584,297.288,452.784,288,449.472z M280,480c-4.408,0-8-3.592-8-8c0-4.408,3.592-8,8-8c4.408,0,8,3.592,8,8
				C288,476.408,284.408,480,280,480z"/>
			<path d="M224,449.472V416h-16v33.472c-9.288,3.312-16,12.112-16,22.528c0,13.232,10.768,24,24,24s24-10.768,24-24
				C240,461.584,233.288,452.784,224,449.472z M216,480c-4.408,0-8-3.592-8-8c0-4.408,3.592-8,8-8s8,3.592,8,8
				C224,476.408,220.408,480,216,480z"/>
			<path d="M160,449.472V416h-16v33.472c-9.288,3.312-16,12.112-16,22.528c0,13.232,10.768,24,24,24s24-10.768,24-24
				C176,461.584,169.288,452.784,160,449.472z M152,480c-4.408,0-8-3.592-8-8c0-4.408,3.592-8,8-8s8,3.592,8,8
				C160,476.408,156.408,480,152,480z"/>
			<path d="M472,176c13.232,0,24-10.768,24-24s-10.768-24-24-24c-10.416,0-19.216,6.712-22.528,16H416v16h33.472
				C452.784,169.288,461.584,176,472,176z M472,144c4.408,0,8,3.592,8,8s-3.592,8-8,8c-4.408,0-8-3.592-8-8S467.592,144,472,144z"/>
			<path d="M472,192c-10.416,0-19.216,6.712-22.528,16H416v16h33.472c3.312,9.288,12.112,16,22.528,16c13.232,0,24-10.768,24-24
				S485.232,192,472,192z M472,224c-4.408,0-8-3.592-8-8s3.592-8,8-8c4.408,0,8,3.592,8,8S476.408,224,472,224z"/>
			<path d="M472,256c-10.416,0-19.216,6.712-22.528,16H416v16h33.472c3.312,9.288,12.112,16,22.528,16c13.232,0,24-10.768,24-24
				S485.232,256,472,256z M472,288c-4.408,0-8-3.592-8-8c0-4.408,3.592-8,8-8c4.408,0,8,3.592,8,8C480,284.408,476.408,288,472,288z
				"/>
			<path d="M472,320c-10.416,0-19.216,6.712-22.528,16H416v16h33.472c3.312,9.288,12.112,16,22.528,16c13.232,0,24-10.768,24-24
				S485.232,320,472,320z M472,352c-4.408,0-8-3.592-8-8c0-4.408,3.592-8,8-8c4.408,0,8,3.592,8,8C480,348.408,476.408,352,472,352z
				"/>
			<path d="M184,368h128c13.232,0,24-10.768,24-24v-96c0-10.416-6.712-19.216-16-22.528V200c0-39.696-32.304-72-72-72
				s-72,32.304-72,72v25.472c-9.288,3.312-16,12.112-16,22.528v96C160,357.232,170.768,368,184,368z M192,200
				c0-30.88,25.12-56,56-56s56,25.12,56,56v24h-16v-24c0-22.056-17.944-40-40-40c-22.056,0-40,17.944-40,40v24h-16V200z M272,200v24
				h-48v-24c0-13.232,10.768-24,24-24S272,186.768,272,200z M176,248c0-4.408,3.592-8,8-8h128c4.408,0,8,3.592,8,8v96
				c0,4.408-3.592,8-8,8H184c-4.408,0-8-3.592-8-8V248z"/>
			<path d="M240,302.528V336h16v-33.472c9.288-3.312,16-12.112,16-22.528c0-13.232-10.768-24-24-24s-24,10.768-24,24
				C224,290.416,230.712,299.216,240,302.528z M248,272c4.408,0,8,3.592,8,8c0,4.408-3.592,8-8,8c-4.408,0-8-3.592-8-8
				C240,275.592,243.592,272,248,272z"/>
			<path d="M96,140.68V400h304V96H140.68L96,140.68z M384,112v272H112V147.312L147.312,112H384z"/>
		</g>
	</g>
</g>
<g>
</g>
<g>
</g>
<g>
</g>
<g>
</g>
<g>
</g>
<g>
</g>
<g>
</g>
<g>
</g>
<g>
</g>
<g>
</g>
<g>
</g>
<g>
</g>
<g>
</g>
<g>
</g>
<g>
</g>
</svg>
