<?xml version="1.0" encoding="utf-8"?>
<!-- Generator: Adobe Illustrator 21.0.2, SVG Export Plug-In . SVG Version: 6.00 Build 0)  -->
<svg version="1.1" id="Layer_1" xmlns="http://www.w3.org/2000/svg" xmlns:xlink="http://www.w3.org/1999/xlink" x="0px" y="0px"
	 viewBox="0 0 100 100" style="enable-background:new 0 0 100 100;" xml:space="preserve" fill="#fff">
<path d="M94,25.8c0-1.1-0.4-2.1-1.2-2.8L76.5,6.7c-1.6-1.6-4.1-1.6-5.7,0L14,63.3c-0.5,0.5-0.8,1.1-1,1.7L5.1,91.7
	c-0.2,0.7,0,1.5,0.5,2C6,94.1,6.5,94.3,7,94.3c0.2,0,0.4,0,0.6-0.1l26.8-7.9c0.6-0.2,1.2-0.5,1.7-1l56.8-56.6
	C93.6,27.9,94,26.9,94,25.8z M34.5,76.8l40.7-40.6l2.2,2.2l-42,41.9L34.5,76.8z M31.3,74.3L24.4,75l0.7-6.9l41-40.9l6.2,6.2
	L31.3,74.3z M22.5,64.9L19,64l42-41.9l2.2,2.2L22.5,64.9z M16.5,67.5l4.5,1.1l-0.7,7.1c-0.1,0.9,0.2,1.8,0.9,2.4
	c0.6,0.6,1.3,0.9,2.1,0.9c0.1,0,0.2,0,0.3,0l7.1-0.7l1.1,4.5L10,89.3L16.5,67.5z M80.2,35.6L63.9,19.3l9.8-9.7L90,25.8L80.2,35.6z
	 M7.1,28.8c-1.6-1.6-1.6-4.1,0-5.7L23.4,6.8c1.6-1.6,4.1-1.6,5.7,0l16.7,16.6c0.8,0.8,0.8,2.1,0,2.8c-0.8,0.8-2.1,0.8-2.9,0
	L26.3,9.6L10,25.9l4.1,4.1l10.2-10.2c0.8-0.8,2.1-0.8,2.9,0c0.8,0.8,0.8,2.1,0,2.8L16.9,32.9l3.2,3.2l4.6-4.6c0.8-0.8,2.1-0.8,2.9,0
	c0.8,0.8,0.8,2.1,0,2.8L23,38.9l3.6,3.6c0.8,0.8,0.8,2.1,0,2.8c-0.4,0.4-0.9,0.6-1.4,0.6s-1-0.2-1.4-0.6L7.1,28.8z M93.8,77
	L77.5,93.3c-0.8,0.8-1.8,1.2-2.9,1.2s-2.1-0.4-2.9-1.2L55.1,76.7c-0.8-0.8-0.8-2.1,0-2.8s2.1-0.8,2.9,0l3.5,3.5l4.6-4.6
	c0.8-0.8,2.1-0.8,2.9,0c0.8,0.8,0.8,2.1,0,2.8l-4.6,4.6l3.3,3.3l0.1-0.1l5-5l5.6-5.5c0.8-0.8,2.1-0.8,2.9,0c0.8,0.8,0.8,2.1,0,2.8
	l-5.6,5.5l-5,5l-0.1,0.1l4.1,4.1L91,74.2L74.3,57.6c-0.8-0.8-0.8-2.1,0-2.8c0.8-0.8,2.1-0.8,2.9,0l16.7,16.6
	C95.4,72.9,95.4,75.5,93.8,77z"/>
</svg>
