<?xml version="1.0" encoding="utf-8"?>
<!-- Generator: Adobe Illustrator 21.0.2, SVG Export Plug-In . SVG Version: 6.00 Build 0)  -->
<svg version="1.1" id="Layer_1" xmlns="http://www.w3.org/2000/svg" xmlns:xlink="http://www.w3.org/1999/xlink" x="0px" y="0px"
	 viewBox="0 0 100 100" style="enable-background:new 0 0 100 100;" xml:space="preserve" fill="#fff">
<path d="M50,5C25.2,5,5,25.2,5,50c0,24.8,20.2,45,45,45c24.8,0,45-20.2,45-45C95,25.2,74.8,5,50,5z M50,91C27.4,91,9,72.6,9,50
	S27.4,9,50,9s41,18.4,41,41S72.6,91,50,91z M48,24v-8c0-1.1,0.9-2,2-2s2,0.9,2,2v8c0,1.1-0.9,2-2,2S48,25.1,48,24z M67,33
	c-0.8-0.8-0.8-2,0-2.8l5.7-5.7c0.8-0.8,2-0.8,2.8,0c0.8,0.8,0.8,2,0,2.8L69.8,33c-0.4,0.4-0.9,0.6-1.4,0.6S67.4,33.4,67,33z M33,67
	c0.8,0.8,0.8,2,0,2.8l-5.7,5.7C27,75.8,26.5,76,26,76s-1-0.2-1.4-0.6c-0.8-0.8-0.8-2,0-2.8l5.7-5.7C31,66.2,32.2,66.2,33,67z M86,50
	c0,1.1-0.9,2-2,2h-8c-1.1,0-2-0.9-2-2s0.9-2,2-2h8C85.1,48,86,48.9,86,50z M24,52h-8c-1.1,0-2-0.9-2-2s0.9-2,2-2h8c1.1,0,2,0.9,2,2
	S25.1,52,24,52z M75.5,72.6c0.8,0.8,0.8,2,0,2.8C75.1,75.8,74.6,76,74,76s-1-0.2-1.4-0.6L67,69.8c-0.8-0.8-0.8-2,0-2.8s2-0.8,2.8,0
	L75.5,72.6z M33,30.2c0.8,0.8,0.8,2,0,2.8c-0.4,0.4-0.9,0.6-1.4,0.6s-1-0.2-1.4-0.6l-5.7-5.7c-0.8-0.8-0.8-2,0-2.8
	c0.8-0.8,2-0.8,2.8,0L33,30.2z M59,72H41c-2.8,0-5,2.2-5,5v2c0,2.8,2.2,5,5,5h18c2.8,0,5-2.2,5-5v-2C64,74.2,61.8,72,59,72z M60,79
	c0,0.5-0.5,1-1,1H41c-0.5,0-1-0.5-1-1v-2c0-0.5,0.5-1,1-1h18c0.5,0,1,0.5,1,1V79z M61.6,35.6l-7.5,7.5C52.9,42.4,51.5,42,50,42
	c-4.4,0-8,3.6-8,8s3.6,8,8,8s8-3.6,8-8c0-1.5-0.4-2.9-1.1-4.1l7.5-7.5c0.8-0.8,0.8-2,0-2.8C63.6,34.8,62.4,34.8,61.6,35.6z M50,54
	c-2.2,0-4-1.8-4-4c0-2.2,1.8-4,4-4c2.2,0,4,1.8,4,4C54,52.2,52.2,54,50,54z"/>
</svg>
