<?xml version="1.0" encoding="utf-8"?>
<!-- Generator: Adobe Illustrator 21.0.2, SVG Export Plug-In . SVG Version: 6.00 Build 0)  -->
<svg version="1.1" id="Layer_1" xmlns="http://www.w3.org/2000/svg" xmlns:xlink="http://www.w3.org/1999/xlink" x="0px" y="0px"
	 viewBox="0 0 100 100" style="enable-background:new 0 0 100 100;" xml:space="preserve" fill="#fff">
<path d="M94.7,61.4c-0.6-2.1-2.1-3.8-4.1-4.9c-4.7-2.4-8.5,0.4-10.9,2.7c0,0-0.1,0-0.1,0.1L69.1,70.8C69,66.5,65.3,63,60.8,63h-9.5
	c-4.9-6.3-11.7-8-14.7-8c-9.2,0-16.9,3.4-23,10H7c-1.1,0-2,0.9-2,2v26c0,1.1,0.9,2,2,2h56.7c6.1,0,11.8-2.8,15.3-7.5l14.8-19.8
	c0-0.1,0.1-0.1,0.1-0.2C95,65.6,95.3,63.5,94.7,61.4z M90.5,65.4L75.8,85.1C73,88.8,68.5,91,63.7,91H9V69h5.4c0.1,0,0.3,0,0.4,0
	c0,0,0,0,0.1,0c0.1,0,0.2-0.1,0.3-0.1c0,0,0.1,0,0.1-0.1c0.1,0,0.2-0.1,0.2-0.1c0,0,0.1-0.1,0.1-0.1c0.1-0.1,0.1-0.1,0.2-0.2
	c0,0,0,0,0,0c0.5-0.5,0.9-1,1.4-1.5c5.2-5.3,11.6-7.8,19.2-7.8c2.6,0,7.6,1.7,11.3,6.1c0.3,0.3,0.5,0.7,0.8,1c0,0,0.1,0.1,0.1,0.1
	c0,0.1,0.1,0.1,0.2,0.2c0,0,0.1,0.1,0.1,0.1c0.1,0,0.1,0.1,0.2,0.1c0,0,0.1,0.1,0.2,0.1c0.1,0,0.1,0.1,0.2,0.1c0.1,0,0.1,0,0.2,0.1
	c0.1,0,0.1,0,0.2,0c0.1,0,0.1,0,0.2,0c0,0,0.1,0,0.2,0h10.5c2.4,0,4.3,1.8,4.3,4c0,2.2-1.9,4-4.3,4H34.4c-1.1,0-2,0.9-2,2
	c0,1.1,0.9,2,2,2h27.8c3,0,5.9-1.3,8-3.5l12.4-13.4c3-2.8,4.6-2.8,6.2-2c1,0.5,1.8,1.4,2.1,2.4C91.1,63.5,91,64.5,90.5,65.4z
	 M61.5,54.4c0.4,0.4,0.9,0.6,1.5,0.6s1.1-0.2,1.5-0.6L88,29.6c4-4.2,5.1-10.2,3-15.7c-2-5.2-6.7-8.6-12.1-8.9c-0.3,0-0.7,0-1,0
	c-6.4,0-12,3.6-14.8,8.8C60.2,8.6,54.6,5,48.2,5c-0.3,0-0.7,0-1,0c-5.4,0.3-10.1,3.7-12.1,8.9c-2.2,5.5-1,11.5,3,15.7L61.5,54.4z
	 M38.8,15.4c1.5-3.8,4.7-6.1,8.6-6.4c0.2,0,0.5,0,0.8,0C55.2,9,61,14.7,61,21.8c0,1.1,0.9,2,2,2s2-0.9,2-2C65,14.7,70.8,9,77.8,9
	c0.3,0,0.5,0,0.8,0c3.9,0.2,7.1,2.6,8.6,6.4c1.6,4,0.8,8.4-2.1,11.5L63,50.1L40.9,26.8C38,23.8,37.2,19.4,38.8,15.4z"/>
</svg>
