<?xml version="1.0" encoding="iso-8859-1"?>
<!-- Generator: Adobe Illustrator 21.0.1, SVG Export Plug-In . SVG Version: 6.00 Build 0)  -->
<svg version="1.1" id="Capa_1" xmlns="http://www.w3.org/2000/svg" xmlns:xlink="http://www.w3.org/1999/xlink" x="0px" y="0px"
	 viewBox="-49 141 512 512" style="enable-background:new -49 141 512 512;" xml:space="preserve" fill="#fff">
<path d="M258.097,236.453c0-0.011,0-0.011,0-0.011l9.44-9.44c4.808-4.798,8.526-10.406,11.071-16.668
	c2.45-6.055,3.687-12.431,3.687-18.953c0-6.533-1.236-12.909-3.687-18.953c-2.545-6.263-6.263-11.87-11.071-16.668
	c-4.788-4.798-10.396-8.516-16.648-11.061c-6.045-2.453-12.411-3.699-18.932-3.699h-0.073c-5.328,0-10.614,0.841-15.683,2.513
	c-5.182,1.693-10.032,4.206-14.394,7.467c-4.372-3.261-9.212-5.774-14.395-7.467c-5.067-1.672-10.343-2.513-15.681-2.513h-0.073
	c-6.522,0-12.888,1.246-18.933,3.697c-6.252,2.545-11.86,6.263-16.648,11.061c-1.61,1.61-3.126,3.344-4.497,5.141
	c-1.267,1.661-1.807,3.707-1.527,5.764c0.28,2.067,1.35,3.895,3.001,5.151c1.371,1.049,3.001,1.599,4.715,1.599
	c2.451,0,4.715-1.122,6.2-3.074c0.945-1.236,1.994-2.441,3.116-3.573c6.573-6.563,15.308-10.178,24.613-10.188
	c9.295,0.01,18.029,3.625,24.603,10.188c1.465,1.475,3.428,2.285,5.505,2.285s4.04-0.81,5.504-2.285
	c6.574-6.563,15.308-10.178,24.604-10.188c9.305,0.01,18.039,3.625,24.613,10.188c6.564,6.574,10.178,15.308,10.189,24.614
	c-0.01,9.295-3.625,18.04-10.189,24.604l-54.72,54.72l-54.721-54.72c-2.971-2.981-5.349-6.398-7.073-10.179
	c-1.652-3.645-2.669-7.54-3.002-11.569c-0.156-1.963-1.049-3.78-2.492-5.11c-1.599-1.464-3.739-2.192-5.909-2.025
	c-4.279,0.353-7.478,4.123-7.125,8.402v0.011c0.966,11.87,6.148,23.055,14.592,31.488l60.225,60.225
	c1.444,1.443,3.458,2.275,5.505,2.275c2.056,0,4.06-0.832,5.504-2.275l50.681-50.671
	C258.024,236.515,258.055,236.483,258.097,236.453z"/>
<path d="M160.264,523.18H136.9l0.008-17.245c19.074-16.665,31.145-41.152,31.145-68.406v-29.884
	c6.087-30.615,3.294-53.317-8.311-67.472c-7.314-8.923-16.381-12.325-22.846-13.596v-34.474c0-4.302-3.487-7.789-7.789-7.789
	c-2.955,0-5.983-0.016-9.066-0.032c-3.223-0.017-6.506-0.034-9.826-0.034c-37.576,0-79.765,2.377-104.825,30.765
	c-18.026,20.419-24.268,50.576-19.083,92.19v30.327c0,27.26,12.076,51.752,31.157,68.417v17.233H-5.902
	c-21.475,0-38.945,17.471-38.945,38.945v83.086c0,4.302,3.487,7.789,7.789,7.789H191.42c4.302,0,7.789-3.487,7.789-7.789v-83.065
	c0-0.007,0.001-0.013,0.001-0.02C199.21,540.65,181.739,523.18,160.264,523.18z M121.321,526.799l-23.92,15.949l-12.431-6.21v-8.504
	c13.103-1.117,25.421-5.025,36.356-11.127L121.321,526.799z M17.07,325.322c20.769-23.527,58.97-25.496,93.146-25.496
	c3.293,0,6.547,0.017,9.743,0.034c0.455,0.002,0.908,0.004,1.36,0.007v33.778c0,2.15,0.851,4.207,2.418,5.68
	c1.567,1.473,3.631,2.229,5.782,2.098c0.706-0.027,10.979-0.153,18.176,8.627c5.317,6.485,7.969,16.438,7.91,29.34l-3.386-6.771
	c-1.716-3.432-5.678-5.105-9.332-3.937c-0.464,0.147-46.614,14.754-73.237,14.754c-25.534,0-48.639-13.845-48.86-13.979
	c-3.425-2.094-7.882-1.24-10.292,1.973L0.217,385.138C-0.41,358.799,5.232,338.731,17.07,325.322z M1.886,437.529v-28.653
	l17.052-22.736c9.605,4.776,29.084,12.874,50.713,12.874c23.071,0,57.419-9.37,71.577-13.545l11.247,22.494v29.566
	c0,41.501-33.777,75.265-75.295,75.265C35.663,512.794,1.886,479.03,1.886,437.529z M69.391,528.035v8.046l-16.846,6.738
	l-19.502-15.594v-10.312C43.977,523.011,56.291,526.918,69.391,528.035z M183.63,637.422h-36.335v-23.369
	c0-4.302-3.487-7.789-7.789-7.789s-7.789,3.487-7.789,7.789v23.369H22.659v-23.369c0-4.302-3.487-7.789-7.789-7.789
	s-7.789,3.487-7.789,7.789v23.369h-36.35v-75.297c0-12.884,10.482-23.367,23.367-23.367h28.425l23.837,19.061
	c0.071,0.057,0.15,0.094,0.222,0.148c0.217,0.161,0.439,0.309,0.67,0.446c0.143,0.086,0.285,0.169,0.433,0.244
	c0.221,0.112,0.447,0.209,0.677,0.3c0.156,0.062,0.31,0.129,0.469,0.18c0.256,0.082,0.517,0.141,0.78,0.197
	c0.133,0.028,0.263,0.069,0.397,0.09c0.402,0.064,0.809,0.101,1.221,0.101c0.271,0,0.544-0.018,0.817-0.048
	c0.048-0.004,0.095-0.014,0.143-0.02c0.214-0.026,0.428-0.061,0.642-0.105c0.088-0.018,0.175-0.042,0.263-0.063
	c0.166-0.042,0.333-0.087,0.499-0.14c0.11-0.036,0.218-0.073,0.326-0.114c0.067-0.024,0.135-0.043,0.201-0.069l22.711-9.083
	l17.511,8.747c0.006,0.003,0.012,0.005,0.017,0.008l0.125,0.063c0.109,0.055,0.221,0.093,0.331,0.142
	c0.152,0.067,0.303,0.139,0.459,0.197c0.19,0.07,0.381,0.123,0.573,0.177c0.098,0.027,0.194,0.063,0.293,0.086
	c0.277,0.068,0.556,0.117,0.835,0.153c0.021,0.002,0.042,0.008,0.062,0.01c0.307,0.037,0.615,0.058,0.922,0.058
	c0.366,0,0.729-0.027,1.089-0.078c0.156-0.022,0.309-0.065,0.464-0.096c0.201-0.042,0.403-0.076,0.6-0.133
	c0.156-0.045,0.307-0.109,0.461-0.163c0.197-0.07,0.394-0.137,0.584-0.222c0.134-0.061,0.263-0.135,0.395-0.204
	c0.207-0.107,0.412-0.217,0.608-0.344c0.041-0.025,0.085-0.043,0.125-0.07l29.183-19.458h28.797c12.88,0,23.36,10.476,23.367,23.354
	c0,0.004,0,0.009,0,0.013v75.299H183.63z"/>
<path d="M458.848,385.536c0-0.018-0.002-0.036-0.003-0.054c-0.029-67.262-54.759-121.974-122.028-121.974
	c-67.286,0-122.027,54.742-122.027,122.028v186.976v72.699c0,4.302,3.487,7.789,7.789,7.789h228.478
	c4.302,0,7.789-3.487,7.789-7.789v-72.659c0-0.014,0.002-0.027,0.002-0.041L458.848,385.536L458.848,385.536z M336.816,279.086
	c58.697,0,106.451,47.753,106.451,106.45c0,0.013,0.002,0.026,0.002,0.04v155.8c-6.513-4.901-14.607-7.81-23.367-7.81h-30.895
	c-0.088-0.003-0.173-0.013-0.262-0.013s-0.173,0.01-0.262,0.013h-12.718l0.006-13.975c30.67-14.608,51.919-45.899,51.919-82.062
	v-41.57c0-4.302-3.487-7.789-7.789-7.789H406.92v-12.984c0-4.302-3.487-7.789-7.789-7.789s-7.789,3.487-7.789,7.789v12.984h-15.578
	v-12.984c0-4.302-3.487-7.789-7.789-7.789s-7.789,3.487-7.789,7.789v12.984h-15.578v-12.984c0-4.302-3.487-7.789-7.789-7.789
	s-7.789,3.487-7.789,7.789v12.984h-15.578v-12.984c0-4.302-3.487-7.789-7.789-7.789s-7.789,3.487-7.789,7.789v12.984h-15.578
	v-12.984c0-4.302-3.487-7.789-7.789-7.789s-7.789,3.487-7.789,7.789v12.984h-12.982c-4.302,0-7.789,3.487-7.789,7.789v41.57
	c0,36.167,21.253,67.46,51.927,82.066v13.971h-12.72c-0.088-0.003-0.173-0.013-0.262-0.013c-0.088,0-0.173,0.01-0.262,0.013h-30.895
	c-8.761,0-16.854,2.91-23.367,7.81v-155.84C230.368,326.839,278.12,279.086,336.816,279.086z M261.524,403.748h150.589v33.781
	c0,41.501-33.777,75.265-75.295,75.265s-75.295-33.764-75.295-75.265L261.524,403.748L261.524,403.748z M305.662,549.144
	c4.302,0,7.789-3.487,7.789-7.789v-16.033c7.459,1.986,15.291,3.05,23.367,3.05c8.078,0,15.912-1.065,23.372-3.052l-0.007,16.032
	v0.001c0,0.001,0,0.002,0,0.002c0,0.132,0.013,0.261,0.02,0.39c0.006,0.135,0.006,0.272,0.02,0.405
	c0.012,0.12,0.037,0.236,0.054,0.355c0.02,0.14,0.035,0.281,0.064,0.418c0.024,0.12,0.061,0.235,0.09,0.353
	c0.033,0.131,0.061,0.265,0.101,0.394c0.043,0.138,0.097,0.269,0.147,0.403c0.039,0.104,0.071,0.211,0.115,0.313
	c0.078,0.185,0.167,0.362,0.26,0.54c0.023,0.046,0.043,0.094,0.068,0.14c1.076,1.984,2.99,3.447,5.267,3.918
	c0.003,0,0.007,0.002,0.01,0.002c0.199,0.04,0.403,0.068,0.608,0.093c0.056,0.007,0.111,0.019,0.166,0.025
	c0.156,0.016,0.316,0.017,0.475,0.024c0.108,0.004,0.213,0.016,0.322,0.016c0.001,0,0.002,0,0.003,0h12.279
	c-3.697,20.627-21.759,36.336-43.433,36.336s-39.737-15.709-43.433-36.336H305.662L305.662,549.144z M443.267,637.422h-36.341
	v-23.369c0-4.302-3.487-7.789-7.789-7.789s-7.789,3.487-7.789,7.789v23.369H282.291v-23.369c0-4.302-3.487-7.789-7.789-7.789
	s-7.789,3.487-7.789,7.789v23.369h-36.345v-64.91c0-12.884,10.483-23.367,23.367-23.367h23.894
	c3.837,29.253,28.908,51.914,59.19,51.914s55.353-22.661,59.19-51.914h23.894c12.875,0,23.352,10.469,23.366,23.341
	c0,0.008-0.001,0.017-0.001,0.026v64.91H443.267z"/>
</svg>
