<?xml version="1.0" encoding="utf-8"?>
<!-- Generator: Adobe Illustrator 21.0.2, SVG Export Plug-In . SVG Version: 6.00 Build 0)  -->
<svg version="1.1" id="Layer_1" xmlns="http://www.w3.org/2000/svg" xmlns:xlink="http://www.w3.org/1999/xlink" x="0px" y="0px"
	 viewBox="0 0 100 100" style="enable-background:new 0 0 100 100;" xml:space="preserve">
<path fill="#fff" d="M77,43L77,43c0-0.5,0-1,0-1.4V31.5C77,16.9,65.1,5,50.5,5h-1C34.9,5,23,16.9,23,31.5v10.1c0,0.5,0,1,0.1,1.4H23
	c-6.6,0-12,5.4-12,12v28c0,6.6,5.4,12,12,12h54c6.6,0,12-5.4,12-12V55C89,48.4,83.6,43,77,43z M29,31.5C29,20.2,38.2,11,49.5,11h1
	C61.8,11,71,20.2,71,31.5v10.1c0,0.5,0,1-0.1,1.4H29.1C29,42.5,29,42,29,41.6V31.5z M83,83c0,3.3-2.7,6-6,6H23c-3.3,0-6-2.7-6-6V55
	c0-3.3,2.7-6,6-6h54c3.3,0,6,2.7,6,6V83z M50,59c-3.9,0-7,3.1-7,7c0,3.2,2.1,5.8,5,6.7V77c0,1.1,0.9,2,2,2s2-0.9,2-2v-4.3
	c2.9-0.9,5-3.5,5-6.7C57,62.1,53.9,59,50,59z M50,69c-1.7,0-3-1.4-3-3c0-1.7,1.3-3,3-3s3,1.3,3,3C53,67.6,51.7,69,50,69z"/>
</svg>
