<svg width="24" height="24" viewBox="0 0 24 24" fill="none" xmlns="http://www.w3.org/2000/svg">
<g clip-path="url(#clip0)">
<path d="M13.875 3.75C10.875 3.75 10.875 6.75 6.37504 6.75V9.75C6.35918 10.8412 6.58653 11.9223 7.04057 12.9147C7.49462 13.9072 8.16398 14.786 9.00004 15.4875V16.5C9.00004 16.9875 9.07504 17.625 8.02504 18.225L11.775 22.875L15.6 18.1875C14.5875 17.625 14.625 16.9875 14.625 16.5V14.625C15.75 14.625 17.25 13.5 17.25 12V6.375C17.25 6.375 16.6875 3.75 13.875 3.75Z" fill="#E4EBFC"/>
<path d="M14.625 14.625C14.625 14.3266 14.5065 14.0405 14.2955 13.8295C14.0845 13.6185 13.7984 13.5 13.5 13.5H12.75C12.4516 13.5 12.1655 13.6185 11.9545 13.8295C11.7435 14.0405 11.625 14.3266 11.625 14.625C11.625 14.9234 11.7435 15.2095 11.9545 15.4205C12.1655 15.6315 12.4516 15.75 12.75 15.75H13.5C13.7984 15.75 14.0845 15.6315 14.2955 15.4205C14.5065 15.2095 14.625 14.9234 14.625 14.625Z" fill="#164ED4"/>
<path d="M19.125 7.5H17.25V12C17.2462 12.1133 17.2336 12.2261 17.2125 12.3375H19.125C19.4149 12.3122 19.6865 12.1855 19.8922 11.9797C20.098 11.774 20.2247 11.5024 20.25 11.2125V8.625C20.2247 8.33515 20.098 8.06349 19.8922 7.85775C19.6865 7.65201 19.4149 7.52534 19.125 7.5V7.5ZM3.375 8.625V11.25C3.40034 11.5399 3.52701 11.8115 3.73275 12.0172C3.93849 12.223 4.21015 12.3497 4.5 12.375H6.825C6.52489 11.5325 6.37265 10.6444 6.375 9.75V7.5H4.5C4.21015 7.52534 3.93849 7.65201 3.73275 7.85775C3.52701 8.06349 3.40034 8.33515 3.375 8.625V8.625Z" fill="#658EEF"/>
<path opacity="0.14" d="M19.125 10.875H17.25V12C17.2462 12.1133 17.2336 12.2261 17.2125 12.3375H19.125C19.4149 12.3122 19.6865 12.1855 19.8922 11.9797C20.098 11.774 20.2247 11.5024 20.25 11.2125V9.75C20.2247 10.0399 20.098 10.3115 19.8922 10.5172C19.6865 10.723 19.4149 10.8497 19.125 10.875V10.875ZM3.375 9.75V11.25C3.40034 11.5399 3.52701 11.8115 3.73275 12.0172C3.93849 12.223 4.21015 12.3497 4.5 12.375H6.825C6.65063 11.8887 6.52501 11.3862 6.45 10.875H4.5C4.21015 10.8497 3.93849 10.723 3.73275 10.5172C3.52701 10.3115 3.40034 10.0399 3.375 9.75V9.75Z" fill="#000064"/>
<path d="M11.775 0.75C9.3 0.75 6.375 2.1 6.375 6V6.75C10.875 6.75 10.875 3.75 13.875 3.75C16.875 3.75 17.25 6.375 17.25 6.375V6C17.25 2.1 14.25 0.75 11.775 0.75Z" fill="#164ED4"/>
<path d="M18.525 19.125C17.5052 18.9748 16.5171 18.6581 15.6 18.1875L11.775 22.875L8.025 18.225C7.08004 18.6847 6.06697 18.9886 5.025 19.125C3.98324 19.3101 3.02022 19.8013 2.25881 20.536C1.49741 21.2706 0.97213 22.2155 0.75 23.25H22.875C22.6296 22.2139 22.0874 21.2719 21.3147 20.5392C20.5421 19.8066 19.5726 19.3151 18.525 19.125V19.125Z" fill="#DEE7FC"/>
<path opacity="0.14" d="M14.625 16.5V14.625H12.375C12.2229 14.6069 12.0687 14.6235 11.924 14.6737C11.7792 14.7238 11.6478 14.8061 11.5395 14.9144C11.4312 15.0227 11.3488 15.1542 11.2987 15.2989C11.2486 15.4437 11.2319 15.5979 11.25 15.75C7.5 14.625 8.25 9.74997 8.25 8.24997C8.25 7.87497 8.2125 7.27497 8.2125 6.56247C8.175 4.34998 8.475 1.08748 11.2125 0.787476C8.85 0.974976 6.375 2.39998 6.375 5.99998V9.74997C6.35913 10.8412 6.58648 11.9223 7.04053 12.9147C7.49458 13.9071 8.16394 14.786 9 15.4875V16.5C9 16.9875 9.075 17.625 8.025 18.225C7.08004 18.6847 6.06697 18.9886 5.025 19.125C3.98324 19.31 3.02022 19.8012 2.25881 20.5359C1.49741 21.2706 0.97213 22.2155 0.75 23.25H3.7875C3.7875 23.25 4.125 20.625 6 20.25C6.97223 20.0218 7.89814 19.6286 8.7375 19.0875C9.08742 18.8681 9.4254 18.6303 9.75 18.375C10.3413 18.6317 10.9805 18.7596 11.625 18.75C13.125 18.75 14.1375 17.5875 14.625 16.8V16.5Z" fill="#000064"/>
<path d="M6.375 7.5H4.5C4.21015 7.52534 3.93849 7.65201 3.73275 7.85775C3.52701 8.06349 3.40034 8.33515 3.375 8.625V11.25C3.40034 11.5399 3.52701 11.8115 3.73275 12.0172C3.93849 12.223 4.21015 12.3497 4.5 12.375H6.825M17.25 12.375H19.125C19.4149 12.3497 19.6865 12.223 19.8922 12.0172C20.098 11.8115 20.2247 11.5399 20.25 11.25V8.625C20.2247 8.33515 20.098 8.06349 19.8922 7.85775C19.6865 7.65201 19.4149 7.52534 19.125 7.5H17.25V12.375Z" stroke="#0E3389" stroke-width="2" stroke-miterlimit="10" stroke-linecap="round" stroke-linejoin="round"/>
<path d="M9.525 15.8625C7.7625 14.775 6.375 12.45 6.375 9.75V6C6.375 2.1 9.3 0.75 11.775 0.75C14.25 0.75 17.25 2.1 17.25 6V12C17.25 13.5 15.75 14.625 14.625 14.625" stroke="#0E3389" stroke-width="2" stroke-miterlimit="10" stroke-linecap="round" stroke-linejoin="round"/>
<path d="M9 15.4875V16.5C9 17.25 9.15 18.375 5.025 19.125C3.98324 19.3101 3.02022 19.8013 2.25881 20.536C1.49741 21.2706 0.97213 22.2155 0.75 23.25H22.875C22.6296 22.2139 22.0874 21.2719 21.3147 20.5392C20.5421 19.8066 19.5726 19.3151 18.525 19.125C14.5125 18.375 14.625 17.25 14.625 16.5V14.625" stroke="#0E3389" stroke-width="2" stroke-miterlimit="10" stroke-linecap="round" stroke-linejoin="round"/>
<path d="M6.375 6.75C10.875 6.75 10.875 3.75 13.875 3.75C16.875 3.75 17.25 6.375 17.25 6.375M14.625 14.625C14.625 14.3266 14.5065 14.0405 14.2955 13.8295C14.0845 13.6185 13.7984 13.5 13.5 13.5H12.75C12.4516 13.5 12.1655 13.6185 11.9545 13.8295C11.7435 14.0405 11.625 14.3266 11.625 14.625C11.625 14.9234 11.7435 15.2095 11.9545 15.4205C12.1655 15.6315 12.4516 15.75 12.75 15.75H13.5C13.7984 15.75 14.0845 15.6315 14.2955 15.4205C14.5065 15.2095 14.625 14.9234 14.625 14.625ZM8.025 18.1875L11.775 22.875L15.6 18.1875H8.025Z" stroke="#0E3389" stroke-width="2" stroke-miterlimit="10" stroke-linecap="round" stroke-linejoin="round"/>
</g>
<defs>
<clipPath id="clip0">
<rect width="24" height="24" fill="white"/>
</clipPath>
</defs>
</svg>
