<svg width="24" height="20" viewBox="0 0 24 20" fill="none" xmlns="http://www.w3.org/2000/svg">
<path d="M0.75 5.5H23.25V19H0.75V5.5Z" fill="white"/>
<path d="M0.75 5.5H6.75V19H0.75V5.5Z" fill="#C3D3F9"/>
<path d="M0.75 1H23.25V5.5H0.75V1Z" fill="#7D9FF2"/>
<path d="M3 3.625C3.20711 3.625 3.375 3.45711 3.375 3.25C3.375 3.04289 3.20711 2.875 3 2.875C2.79289 2.875 2.625 3.04289 2.625 3.25C2.625 3.45711 2.79289 3.625 3 3.625Z" fill="#7C9FF2"/>
<path d="M5.625 3.625C5.83211 3.625 6 3.45711 6 3.25C6 3.04289 5.83211 2.875 5.625 2.875C5.41789 2.875 5.25 3.04289 5.25 3.25C5.25 3.45711 5.41789 3.625 5.625 3.625Z" fill="#7C9FF2"/>
<path d="M8.25 3.625C8.45711 3.625 8.625 3.45711 8.625 3.25C8.625 3.04289 8.45711 2.875 8.25 2.875C8.04289 2.875 7.875 3.04289 7.875 3.25C7.875 3.45711 8.04289 3.625 8.25 3.625Z" fill="#7C9FF2"/>
<path opacity="0.15" d="M0.75 5.5H2.25V19H0.75V5.5ZM0.75 1H2.25V5.5H0.75V1Z" fill="#000064"/>
<path d="M6.75 11.5H23.25M0.75 1H23.25V5.5H0.75V1ZM0.75 5.5V19H23.25V5.5H0.75ZM6.75 5.5V19V5.5Z" stroke="#0E3389" stroke-width="2" stroke-linecap="round" stroke-linejoin="round"/>
<path d="M3 3.625C3.20711 3.625 3.375 3.45711 3.375 3.25C3.375 3.04289 3.20711 2.875 3 2.875C2.79289 2.875 2.625 3.04289 2.625 3.25C2.625 3.45711 2.79289 3.625 3 3.625Z" stroke="#0E3389" stroke-width="2" stroke-linecap="round" stroke-linejoin="round"/>
<path d="M5.625 3.625C5.83211 3.625 6 3.45711 6 3.25C6 3.04289 5.83211 2.875 5.625 2.875C5.41789 2.875 5.25 3.04289 5.25 3.25C5.25 3.45711 5.41789 3.625 5.625 3.625Z" stroke="#0E3389" stroke-width="2" stroke-linecap="round" stroke-linejoin="round"/>
<path d="M8.25 3.625C8.45711 3.625 8.625 3.45711 8.625 3.25C8.625 3.04289 8.45711 2.875 8.25 2.875C8.04289 2.875 7.875 3.04289 7.875 3.25C7.875 3.45711 8.04289 3.625 8.25 3.625Z" stroke="#0E3389" stroke-width="2" stroke-linecap="round" stroke-linejoin="round"/>
</svg>
