<svg width="28" height="20" viewBox="0 0 28 20" fill="none" xmlns="http://www.w3.org/2000/svg">
<path d="M21.4375 5.62498H21.2188C20.5597 4.16295 19.4457 2.95313 18.0428 2.17592C16.64 1.39871 15.0236 1.09575 13.4345 1.31221C11.8455 1.52868 10.369 2.25297 9.22516 3.37709C8.08135 4.50121 7.33154 5.96492 7.08752 7.54998C6.43055 7.36862 5.74256 7.32886 5.06908 7.43335C4.3956 7.53784 3.752 7.78418 3.18087 8.15607C2.60974 8.52796 2.12411 9.01692 1.75613 9.59058C1.38816 10.1642 1.14622 10.8095 1.04634 11.4837C0.946465 12.1579 0.990922 12.8456 1.17677 13.5013C1.36262 14.157 1.68562 14.7657 2.1244 15.2872C2.56317 15.8088 3.10771 16.2311 3.72197 16.5264C4.33622 16.8216 5.00619 16.9831 5.68752 17H21.4375C22.9459 17 24.3926 16.4008 25.4592 15.3341C26.5258 14.2675 27.125 12.8209 27.125 11.3125C27.125 9.80406 26.5258 8.35742 25.4592 7.29081C24.3926 6.22419 22.9459 5.62498 21.4375 5.62498Z" fill="#C4D3F9"/>
<path opacity="0.1" d="M6.99996 9.12501C6.99396 8.61154 7.03791 8.09871 7.13121 7.59376H7.04371C6.37883 7.38645 5.67687 7.32592 4.98631 7.41635C4.29575 7.50679 3.63305 7.74603 3.04397 8.11755C2.45489 8.48908 1.95346 8.98403 1.57432 9.56824C1.19518 10.1525 0.947356 10.812 0.847965 11.5013C0.748574 12.1906 0.799983 12.8933 0.998642 13.5608C1.1973 14.2284 1.53848 14.8448 1.99861 15.3676C2.45874 15.8904 3.02686 16.3071 3.66375 16.589C4.30063 16.8708 4.99109 17.011 5.68746 17H14.875C12.7864 17 10.7833 16.1703 9.30649 14.6935C7.82964 13.2166 6.99996 11.2136 6.99996 9.12501Z" fill="#000064"/>
<path opacity="0.5" d="M27.125 11.3125C27.125 9.80403 26.5258 8.3574 25.4592 7.29078C24.3926 6.22417 22.9459 5.62495 21.4375 5.62495H21.2188C20.7278 4.53793 19.9826 3.58492 19.046 2.84633C18.1095 2.10774 17.009 1.60523 15.8375 1.3812L15.3125 1.2937H14.4375L13.0375 1.42495C11.679 1.68571 10.4209 2.32233 9.40625 3.26245C11.1013 2.91 12.8588 3.00283 14.5073 3.53189C16.1558 4.06094 17.6391 5.00817 18.8125 6.2812C18.1033 6.64395 17.4775 7.15056 16.975 7.7687C18.056 7.35326 19.2282 7.23329 20.3709 7.42114C21.5136 7.60899 22.5857 8.09787 23.4768 8.8375C24.368 9.57713 25.0459 10.5408 25.4411 11.6294C25.8362 12.718 25.9342 13.8922 25.725 15.0312C26.627 14.0023 27.1246 12.6808 27.125 11.3125Z" fill="white"/>
<path d="M14 18.75V9.12498M18.375 17H21.4375C22.9459 17 24.3926 16.4008 25.4592 15.3341C26.5258 14.2675 27.125 12.8209 27.125 11.3125C27.125 9.80406 26.5258 8.35742 25.4592 7.29081C24.3926 6.22419 22.9459 5.62498 21.4375 5.62498H21.2188C20.5597 4.16295 19.4457 2.95313 18.0428 2.17592C16.64 1.39871 15.0236 1.09575 13.4345 1.31221C11.8455 1.52868 10.369 2.25297 9.22516 3.37709C8.08135 4.50121 7.33154 5.96492 7.08752 7.54998C6.43055 7.36861 5.74256 7.32886 5.06908 7.43335C4.3956 7.53783 3.752 7.78418 3.18087 8.15607C2.60974 8.52796 2.12411 9.01692 1.75613 9.59058C1.38816 10.1642 1.14622 10.8095 1.04634 11.4837C0.946465 12.1579 0.990922 12.8456 1.17677 13.5013C1.36262 14.157 1.68562 14.7657 2.1244 15.2872C2.56317 15.8088 3.10771 16.2311 3.72197 16.5264C4.33622 16.8216 5.00619 16.9831 5.68752 17H9.62502H18.375Z" stroke="#0E3389" stroke-width="2" stroke-linecap="round" stroke-linejoin="round"/>
<path d="M17.5 12.625L14 9.125L10.5 12.625" stroke="#0E3389" stroke-width="2" stroke-linecap="round" stroke-linejoin="round"/>
</svg>
