<svg width="45" height="45" viewBox="0 0 45 45" fill="none" xmlns="http://www.w3.org/2000/svg">
<path d="M32.2053 28.0338C33.2395 28.0141 34.0624 27.1607 34.0445 26.1264V1.90739C34.0624 0.873152 33.2395 0.0197351 32.2053 0H12.7948C11.7605 0.0197351 10.9377 0.873152 10.9555 1.90739V26.1264C10.9377 27.1607 11.7605 28.0141 12.7948 28.0338H13.8326V40.2275H13.3037C11.9858 40.3898 11.049 41.5897 11.2113 42.9077C11.3462 44.0025 12.2088 44.8652 13.3037 45H31.6964C33.0142 44.8377 33.9511 43.6378 33.7887 42.3198C33.6538 41.225 32.7912 40.3624 31.6964 40.2275H31.1674V28.0338H32.2053ZM31.6964 40.9849C32.5971 40.9853 33.3269 41.7159 33.3265 42.6166C33.3261 43.5167 32.5965 44.2463 31.6964 44.2467H13.3037C12.403 44.2463 11.6732 43.5157 11.6736 42.615C11.674 41.7149 12.4036 40.9853 13.3037 40.9849H31.6964ZM14.5619 40.2275V28.0338H30.4381V40.2275H14.5619ZM12.7948 27.2765C12.17 27.2655 11.6719 26.7513 11.6808 26.1264V1.90739C11.6719 1.28418 12.1675 0.77047 12.7907 0.757346H32.2053C32.83 0.768366 33.3282 1.28258 33.3193 1.90739V26.1264C33.3282 26.7497 32.8325 27.2634 32.2093 27.2765H12.7948Z" fill="white"/>
<path d="M28.4786 3.91089H16.5214C15.8059 3.92401 15.236 4.51366 15.2471 5.22923V17.8116C15.236 18.5272 15.8059 19.1168 16.5214 19.1299H28.4786C29.1941 19.1168 29.764 18.5272 29.7529 17.8116V5.22923C29.764 4.51366 29.1941 3.92401 28.4786 3.91089ZM29.0236 17.8116C29.0281 18.1176 28.7847 18.37 28.4786 18.3766H16.5214C16.2153 18.37 15.9719 18.1177 15.9764 17.8116V5.22923C15.9719 4.92319 16.2153 4.67084 16.5214 4.66423H28.4786C28.7847 4.67084 29.0281 4.92309 29.0236 5.22923V17.8116Z" fill="white"/>
<path d="M13.5882 5.53271C12.8918 5.49955 12.3005 6.0371 12.2672 6.73344C12.2663 6.75297 12.2658 6.77251 12.2658 6.79214C12.2545 7.47065 12.7897 8.03255 13.4679 8.05439C14.1643 8.08754 14.7556 7.54999 14.7889 6.85365C14.822 6.15721 14.2845 5.56586 13.5882 5.53271ZM13.508 7.30015C13.2272 7.31116 12.9905 7.09248 12.9795 6.81168C12.9792 6.80517 12.9791 6.79855 12.9791 6.79204C12.9746 6.51695 13.1928 6.28975 13.4679 6.28314C13.7487 6.27212 13.9855 6.49081 13.9965 6.77161C14.0076 7.05251 13.7888 7.28913 13.508 7.30015Z" fill="white"/>
<path d="M13.5882 10.2612C12.8918 10.2281 12.3005 10.7656 12.2672 11.462C12.2663 11.4815 12.2658 11.501 12.2658 11.5207C12.2545 12.1992 12.7897 12.7611 13.4679 12.7829C14.1643 12.8161 14.7556 12.2785 14.7889 11.5822C14.822 10.8857 14.2845 10.2944 13.5882 10.2612ZM13.508 12.0287C13.2272 12.0397 12.9905 11.821 12.9795 11.5402C12.9792 11.5337 12.9791 11.5271 12.9791 11.5206C12.9746 11.2455 13.1928 11.0183 13.4679 11.0117C13.7487 11.0006 13.9855 11.2193 13.9965 11.5001C14.0076 11.781 13.7888 12.0176 13.508 12.0287Z" fill="white"/>
<path d="M13.5882 14.9895C12.8918 14.9563 12.3005 15.4939 12.2672 16.1902C12.2663 16.2098 12.2658 16.2293 12.2658 16.2489C12.2545 16.9274 12.7897 17.4893 13.4679 17.5112C14.1643 17.5443 14.7556 17.0068 14.7889 16.3104C14.822 15.614 14.2845 15.0227 13.5882 14.9895ZM13.508 16.7569C13.2272 16.768 12.9905 16.5493 12.9795 16.2685C12.9792 16.262 12.9791 16.2553 12.9791 16.2488C12.9768 15.9752 13.1945 15.7504 13.4679 15.7439V15.7399C13.7487 15.7289 13.9855 15.9476 13.9965 16.2284C14.0076 16.5092 13.7888 16.7459 13.508 16.7569Z" fill="white"/>
<path d="M31.6522 5.53271C30.9559 5.49955 30.3645 6.0371 30.3313 6.73344C30.3304 6.75297 30.3299 6.77251 30.3299 6.79214C30.3186 7.47065 30.8538 8.03255 31.532 8.05439C32.2284 8.08754 32.8197 7.54999 32.853 6.85365C32.8861 6.15721 32.3486 5.56586 31.6522 5.53271ZM31.5721 7.30015C31.2913 7.31116 31.0546 7.09248 31.0436 6.81168C31.0433 6.80517 31.0432 6.79855 31.0432 6.79204C31.0386 6.51695 31.2569 6.28975 31.532 6.28314C31.8128 6.27212 32.0495 6.49081 32.0606 6.77161C32.0717 7.05251 31.8529 7.28913 31.5721 7.30015Z" fill="white"/>
<path d="M31.6522 10.2612C30.9559 10.2281 30.3645 10.7656 30.3313 11.462C30.3304 11.4815 30.3299 11.501 30.3299 11.5207C30.3186 12.1992 30.8538 12.7611 31.532 12.7829C32.2284 12.8161 32.8197 12.2785 32.853 11.5822C32.8861 10.8857 32.3486 10.2944 31.6522 10.2612ZM31.5721 12.0287C31.2913 12.0397 31.0546 11.821 31.0436 11.5402C31.0433 11.5337 31.0432 11.5271 31.0432 11.5206C31.0386 11.2455 31.2569 11.0183 31.532 11.0117C31.8128 11.0006 32.0495 11.2193 32.0606 11.5001C32.0717 11.781 31.8529 12.0176 31.5721 12.0287Z" fill="white"/>
<path d="M31.6522 14.9895C30.9559 14.9563 30.3645 15.4939 30.3313 16.1902C30.3304 16.2098 30.3299 16.2293 30.3299 16.2489C30.3186 16.9274 30.8538 17.4893 31.532 17.5112C32.2284 17.5443 32.8197 17.0068 32.853 16.3104C32.8861 15.614 32.3486 15.0227 31.6522 14.9895ZM31.5721 16.7569C31.2913 16.768 31.0546 16.5493 31.0436 16.2685C31.0433 16.262 31.0432 16.2553 31.0432 16.2488C31.0409 15.9752 31.2585 15.7504 31.532 15.7439V15.7399C31.8128 15.7289 32.0495 15.9476 32.0606 16.2284C32.0717 16.5092 31.8529 16.7459 31.5721 16.7569Z" fill="white"/>
<path d="M26.9479 24.5997H18.0521C17.4523 24.6002 16.9665 25.0868 16.967 25.6866C16.9675 26.2856 17.453 26.7711 18.0521 26.7716H26.9479C27.5476 26.7711 28.0334 26.2845 28.0329 25.6848C28.0324 25.0857 27.5469 24.6002 26.9479 24.5997ZM27.242 25.7201C27.225 25.875 27.1027 25.9972 26.9479 26.0142H18.0521C17.8694 25.9941 17.7378 25.8298 17.7579 25.6472C17.775 25.4923 17.8973 25.3701 18.0521 25.3531H26.9479C27.1305 25.3732 27.2621 25.5375 27.242 25.7201Z" fill="white"/>
<path d="M31.2716 20.1959H27.028C26.4283 20.1964 25.9425 20.683 25.943 21.2828C25.9435 21.8818 26.429 22.3673 27.028 22.3678H31.2716C31.8713 22.3673 32.3571 21.8807 32.3566 21.281C32.3561 20.6819 31.8706 20.1964 31.2716 20.1959ZM31.5657 21.3163C31.5487 21.4712 31.4263 21.5934 31.2716 21.6104H27.028C26.8454 21.5903 26.7138 21.426 26.7339 21.2434C26.7509 21.0886 26.8732 20.9663 27.028 20.9493H31.2716C31.4542 20.9694 31.5858 21.1337 31.5657 21.3163Z" fill="white"/>
<path d="M17.976 20.2119H13.7285C13.1287 20.2124 12.6429 20.699 12.6434 21.2987C12.6439 21.8978 13.1294 22.3833 13.7285 22.3838H17.976C18.5638 22.3707 19.0308 21.8857 19.0219 21.2978C19.0308 20.71 18.5638 20.225 17.976 20.2119ZM18.2701 21.3363C18.2531 21.4912 18.1308 21.6134 17.976 21.6304H13.7285C13.5458 21.6103 13.4142 21.446 13.4343 21.2634C13.4514 21.1086 13.5737 20.9863 13.7285 20.9693H17.976C18.1586 20.9894 18.2903 21.1537 18.2701 21.3363Z" fill="white"/>
</svg>
