<svg width="38" height="38" viewBox="0 0 38 38" fill="none" xmlns="http://www.w3.org/2000/svg">
<path d="M23.3333 12.0333C23.3333 14.4221 21.3894 16.3666 19 16.3666C16.6106 16.3666 14.6667 14.4221 14.6667 12.0333C14.6667 9.6445 16.6106 7.69998 19 7.69998C21.3894 7.69998 23.3333 9.6445 23.3333 12.0333ZM22.2667 12.0333C22.2667 10.232 20.8013 8.76664 19 8.76664C17.1987 8.76664 15.7333 10.232 15.7333 12.0333C15.7333 13.8346 17.1987 15.3 19 15.3C20.8013 15.3 22.2667 13.8346 22.2667 12.0333Z" fill="white" stroke="#2489D3" stroke-width="0.2"/>
<path d="M28.5216 20.5897L18.8879 34.5038L9.23957 20.5701L9.23963 20.5701L9.23735 20.567C7.43938 18.1698 6.66793 14.9884 6.87533 11.8759C7.08272 8.76328 8.26826 5.73017 10.3706 3.62815L10.3706 3.62814C12.6458 1.35296 15.6705 0.1 18.8879 0.1C22.1053 0.1 25.13 1.35296 27.4052 3.62877L27.4052 3.62878C29.5075 5.7308 30.693 8.76389 30.8986 11.8788C31.1042 14.9937 30.3292 18.1799 28.5239 20.5867L28.5238 20.5866L28.5216 20.5897ZM11.1247 4.38225L11.1247 4.38226C9.18888 6.31808 8.10551 9.10345 7.91892 11.9536C7.73236 14.8031 8.4415 17.7278 10.1041 19.9452L18.8057 32.5108L18.8879 32.6296L18.9701 32.5108L27.6577 19.9642C29.3273 17.7374 30.0401 14.808 29.8554 11.956C29.6706 9.10348 28.5872 6.31809 26.6511 4.38225L26.5804 4.45297L26.6511 4.38225C24.5772 2.30898 21.8202 1.16667 18.8879 1.16667C15.9556 1.16667 13.1986 2.30898 11.1247 4.38225Z" fill="white" stroke="#2489D3" stroke-width="0.2"/>
<path d="M26.662 27.337L26.6624 27.337C29.9898 27.7289 32.8098 28.4761 34.7948 29.4188C35.7875 29.8902 36.5668 30.4084 37.0965 30.9515C37.6261 31.4946 37.9 32.0558 37.9 32.6166C37.9 33.2417 37.5187 33.8867 36.7238 34.5076C35.9299 35.1276 34.7366 35.7124 33.1473 36.2162C29.9697 37.2234 25.2308 37.9 19 37.9C12.7692 37.9 8.0303 37.2234 4.85265 36.2162C3.26335 35.7124 2.07007 35.1276 1.27622 34.5076C0.481257 33.8867 0.1 33.2417 0.1 32.6166C0.1 32.0558 0.373918 31.4946 0.903524 30.9515C1.43323 30.4084 2.21249 29.8902 3.20521 29.4188C5.19022 28.4761 8.01023 27.7289 11.3376 27.337L11.3376 27.3371L11.3384 27.337C11.6298 27.3003 11.8947 27.5105 11.9296 27.8041C11.9637 28.0966 11.7544 28.3621 11.4625 28.3962L11.4624 28.3962C8.12479 28.7891 5.56245 29.5155 3.83155 30.2999C2.96651 30.692 2.30557 31.1002 1.8591 31.4913C1.41737 31.8782 1.16667 32.2653 1.16667 32.6166C1.16667 32.8652 1.28846 33.1135 1.50349 33.3537C1.71895 33.5944 2.03505 33.8353 2.44226 34.0715C3.25703 34.5442 4.45303 35.0078 5.98747 35.4162C9.05764 36.2332 13.4999 36.8333 19 36.8333C24.5001 36.8333 28.9424 36.2332 32.0125 35.4162C33.547 35.0078 34.743 34.5442 35.5577 34.0715C35.965 33.8353 36.2811 33.5944 36.4965 33.3537C36.7115 33.1135 36.8333 32.8652 36.8333 32.6166C36.8333 32.2653 36.5826 31.8782 36.1409 31.4913C35.6944 31.1002 35.0335 30.692 34.1684 30.2999C32.4375 29.5155 29.8752 28.7891 26.5376 28.3962L26.5375 28.3962C26.2455 28.3621 26.0363 28.0972 26.0704 27.8041C26.1046 27.511 26.3691 27.3013 26.662 27.337Z" fill="white" stroke="#2489D3" stroke-width="0.2"/>
</svg>
