<svg width="22" height="24" viewBox="0 0 22 24" fill="none" xmlns="http://www.w3.org/2000/svg">
<path d="M11 0.75C8.75 3 4.925 4.425 1.25 0.75V9.0375C1.31831 12.0977 2.27685 15.0717 4.00843 17.5958C5.74 20.1199 8.16955 22.0847 11 23.25C13.8305 22.0847 16.26 20.1199 17.9916 17.5958C19.7231 15.0717 20.6817 12.0977 20.75 9.0375V0.75C17 4.5 13.1375 2.8875 11 0.75Z" fill="#9BBEFD"/>
<path opacity="0.15" d="M1.25 0.75V9.0375C1.31831 12.0977 2.27685 15.0717 4.00843 17.5958C5.74 20.1199 8.16955 22.0847 11 23.25V0.75C8.75 3 4.925 4.425 1.25 0.75Z" fill="#000064"/>
<path d="M11 0.75C8.75 3 4.925 4.425 1.25 0.75V9.0375C1.31831 12.0977 2.27685 15.0717 4.00843 17.5958C5.74 20.1199 8.16955 22.0847 11 23.25C13.8305 22.0847 16.26 20.1199 17.9916 17.5958C19.7231 15.0717 20.6817 12.0977 20.75 9.0375V0.75C17 4.5 13.1375 2.8875 11 0.75Z" stroke="#033794" stroke-width="2" stroke-miterlimit="10" stroke-linecap="round" stroke-linejoin="round"/>
</svg>
