<svg width="44" height="44" viewBox="0 0 44 44" fill="none" xmlns="http://www.w3.org/2000/svg">
<path d="M16.8666 27.6916C16.5618 27.6916 16.3136 27.4467 16.3084 27.1431V27.1333V22.7333C16.3084 22.4252 16.5586 22.175 16.8667 22.175H19.8C20.1081 22.175 20.3583 22.4252 20.3583 22.7333V27.1333C20.3583 27.4414 20.1081 27.6916 19.8 27.6916H16.8666ZM17.6 23.2917H17.425V23.4667V26.4V26.575H17.6H19.0667H19.2417V26.4V23.4667V23.2917H19.0667H17.6Z" fill="white" stroke="#2489D3" stroke-width="0.35"/>
<path d="M16.3084 18.3334V18.3334V13.9334C16.3084 13.6253 16.5586 13.3751 16.8667 13.3751H19.8C20.1082 13.3751 20.3583 13.6253 20.3583 13.9334V18.3334C20.3583 18.6415 20.1082 18.8917 19.8 18.8917H16.8667C16.5585 18.8917 16.3084 18.6415 16.3084 18.3334ZM17.6 14.4917H17.425V14.6667V17.6V17.775H17.6H19.0667H19.2417V17.6V14.6667V14.4917H19.0667H17.6Z" fill="white" stroke="#2489D3" stroke-width="0.35"/>
<path d="M11.2878 13.6784L11.2875 13.6786C11.0234 13.8376 10.6796 13.7515 10.5219 13.4879L10.5217 13.4875C10.3626 13.2229 10.4485 12.8801 10.7125 12.7216C10.7125 12.7216 10.7125 12.7216 10.7126 12.7216L21.3568 6.33498L21.4418 6.28401V6.18492V0.733305C21.4418 0.425189 21.692 0.175 22.0001 0.175H27.1334C27.4415 0.175 27.6917 0.425189 27.6917 0.733305V3.6667C27.6917 3.97481 27.4415 4.225 27.1334 4.225H24.2001C23.892 4.225 23.6418 3.97481 23.6418 3.6667C23.6418 3.35858 23.892 3.10839 24.2001 3.10839H26.4001H26.5751V2.93339V1.4667V1.2917H26.4001H22.7334H22.5584V1.4667V6.18492V6.28401L22.6434 6.33498L33.2877 12.7215C33.2877 12.7215 33.2877 12.7215 33.2878 12.7215C33.5518 12.8801 33.6377 13.2228 33.4786 13.4874L33.4784 13.4876C33.3743 13.6615 33.1898 13.7583 32.9993 13.7583C32.9017 13.7583 32.8026 13.7327 32.7127 13.6786L32.7124 13.6784L22.0901 7.30502L22.0001 7.25099L21.9101 7.30502L11.2878 13.6784Z" fill="white" stroke="#2489D3" stroke-width="0.35"/>
<path d="M5.86664 23.2917H5.69164V23.4667V24.2C5.69164 24.5082 5.44145 24.7583 5.13333 24.7583C4.82521 24.7583 4.57502 24.5082 4.57502 24.2V22.7334C4.57502 22.4253 4.82521 22.1751 5.13333 22.1751H8.06672C8.37484 22.1751 8.62503 22.4253 8.62503 22.7334V27.1334C8.62503 27.4415 8.37484 27.6917 8.06672 27.6917C7.75851 27.6917 7.50833 27.4415 7.50833 27.1334V23.4667V23.2917H7.33333H5.86664Z" fill="white" stroke="#2489D3" stroke-width="0.35"/>
<path d="M13.025 16.1333V37.4C13.025 37.7081 12.7748 37.9583 12.4667 37.9583C12.1586 37.9583 11.9084 37.7081 11.9084 37.4V16.1333C11.9084 15.8252 12.1586 15.575 12.4667 15.575C12.7748 15.575 13.025 15.8252 13.025 16.1333Z" fill="white" stroke="#2489D3" stroke-width="0.35"/>
<path d="M27.6915 39.6001V39.7751H27.8665H34.4665C34.7747 39.7751 35.0248 40.0253 35.0248 40.3334C35.0248 40.6415 34.7747 40.8917 34.4665 40.8917H9.53323C9.22514 40.8917 8.97493 40.6414 8.97493 40.3333C8.97493 40.0252 9.22512 39.775 9.53323 39.775H16.1332H16.3082V39.6V32.2668V32.0918H16.1332H15.3999C15.0918 32.0918 14.8416 31.8416 14.8416 31.5335C14.8416 31.2254 15.0918 30.9752 15.3999 30.9752H28.5998C28.908 30.9752 29.1581 31.2254 29.1581 31.5335C29.1581 31.8416 28.908 32.0918 28.5998 32.0918H27.8665H27.6915V32.2668V39.6001ZM22.7332 36.4917H22.5582V36.6667V39.6V39.775H22.7332H26.3999H26.5749V39.6V32.2668V32.0918H26.3999H22.7332H22.5582V32.2668V35.2001V35.3751H22.7332C23.0413 35.3751 23.2915 35.6253 23.2915 35.9334C23.2915 36.2415 23.0413 36.4917 22.7332 36.4917ZM17.5999 32.0917H17.4249V32.2667V39.6V39.775H17.5999H21.2666H21.4416V39.6V36.6666V36.4916H21.2666C20.9585 36.4916 20.7083 36.2414 20.7083 35.9333C20.7083 35.6252 20.9585 35.375 21.2666 35.375H21.4416V35.2V32.2667V32.0917H21.2666H17.5999Z" fill="white" stroke="#2489D3" stroke-width="0.35"/>
<path d="M38.1333 36.1083H38.3083V35.9333V33V32.825H38.1333H36.6666H36.4916V33V35.9333V36.1083H36.6666H38.1333ZM35.9334 31.7083H38.8667C39.1748 31.7083 39.425 31.9585 39.425 32.2666V36.6666C39.425 36.9747 39.1748 37.2249 38.8667 37.2249H35.9334C35.6253 37.2249 35.3751 36.9747 35.3751 36.6666V32.2666C35.3751 31.9585 35.6253 31.7083 35.9334 31.7083Z" fill="white" stroke="#2489D3" stroke-width="0.35"/>
<path d="M38.1333 27.3083H38.3083V27.1333V24.2V24.025H38.1333H36.6666H36.4916V24.2V27.1333V27.3083H36.6666H38.1333ZM35.9334 22.9083H38.8667C39.1748 22.9083 39.425 23.1585 39.425 23.4666V27.8666C39.425 28.1747 39.1748 28.4249 38.8667 28.4249H35.9334C35.6253 28.4249 35.3751 28.1747 35.3751 27.8666V23.4666C35.3751 23.1585 35.6253 22.9083 35.9334 22.9083Z" fill="white" stroke="#2489D3" stroke-width="0.35"/>
<path d="M6.6 42.7083H37.4C37.7081 42.7083 37.9583 42.9586 37.9583 43.2667C37.9583 43.5748 37.7081 43.825 37.4 43.825H6.6C6.29191 43.825 6.0417 43.5748 6.0417 43.2666C6.0417 42.9585 6.29189 42.7083 6.6 42.7083Z" fill="white" stroke="#2489D3" stroke-width="0.35"/>
<path d="M42.5334 17.7749H42.7084V17.5999V16.8666C42.7084 16.5585 42.9586 16.3083 43.2667 16.3083C43.5748 16.3083 43.825 16.5585 43.825 16.8665V43.2665C43.825 43.5746 43.5748 43.8248 43.2667 43.8248C42.9586 43.8248 42.7084 43.5746 42.7084 43.2665V19.0665V18.8915H42.5334H34.4667C34.1586 18.8915 33.9084 18.6413 33.9084 18.3332C33.9084 18.0251 34.1586 17.7749 34.4667 17.7749H42.5334Z" fill="white" stroke="#2489D3" stroke-width="0.35"/>
<path d="M24.9333 23.2917H24.7583V23.4667V26.4V26.575H24.9333H26.4H26.575V26.4V23.4667V23.2917H26.4H24.9333ZM24.2 27.6916C23.8919 27.6916 23.6417 27.4414 23.6417 27.1333V22.7333C23.6417 22.4252 23.8919 22.175 24.2 22.175H27.1333C27.4414 22.175 27.6916 22.4252 27.6916 22.7333V27.1333C27.6916 27.4414 27.4414 27.6916 27.1333 27.6916H24.2Z" fill="white" stroke="#2489D3" stroke-width="0.35"/>
<path d="M3.1083 39.5259V39.383L2.96829 39.3545C1.37671 39.0297 0.175 37.6193 0.175 35.9333C0.175 35.8891 0.185468 33.5192 0.645738 31.1645C0.876174 29.9856 1.21669 28.8253 1.71588 27.964C2.21538 27.1021 2.85076 26.575 3.66661 26.575C4.48248 26.575 5.11788 27.1021 5.61739 27.964C6.11659 28.8253 6.45712 29.9856 6.68756 31.1645C7.14784 33.5192 7.1583 35.8891 7.1583 35.9333C7.1583 37.6193 5.9566 39.0297 4.36493 39.3545L4.22491 39.383V39.5259V43.2667C4.22491 43.5748 3.97473 43.825 3.66661 43.825C3.35849 43.825 3.1083 43.5748 3.1083 43.2667V39.5259ZM1.2917 35.9333C1.2917 37.2429 2.35712 38.3083 3.6667 38.3083C4.97627 38.3083 6.0417 37.2429 6.0417 35.9333C6.0417 34.0934 5.79489 32.0621 5.39331 30.4867C5.19282 29.7002 4.95138 29.0177 4.67734 28.5278C4.54041 28.2831 4.3909 28.0783 4.22755 27.9327C4.06352 27.7866 3.8752 27.6916 3.6667 27.6916C3.45819 27.6916 3.26987 27.7866 3.10584 27.9327C2.94249 28.0783 2.79298 28.2831 2.65605 28.5278C2.38201 29.0177 2.14057 29.7002 1.94008 30.4867C1.5385 32.0621 1.2917 34.0934 1.2917 35.9333Z" fill="white" stroke="#2489D3" stroke-width="0.35"/>
<path d="M32.0917 15.4001V37.4001C32.0917 37.7082 31.8415 37.9584 31.5334 37.9584C31.2252 37.9584 30.975 37.7082 30.975 37.4001V15.4001C30.975 15.0919 31.2252 14.8417 31.5334 14.8417C31.8415 14.8417 32.0917 15.0919 32.0917 15.4001Z" fill="white" stroke="#2489D3" stroke-width="0.35"/>
<path d="M24.9333 14.4917H24.7583V14.6667V17.6V17.775H24.9333H26.4H26.575V17.6V14.6667V14.4917H26.4H24.9333ZM27.1333 18.8917H24.2C23.8919 18.8917 23.6417 18.6415 23.6417 18.3334V13.9334C23.6417 13.6253 23.8919 13.3751 24.2 13.3751H27.1333C27.4414 13.3751 27.6916 13.6253 27.6916 13.9334V18.3334C27.6916 18.6415 27.4414 18.8917 27.1333 18.8917Z" fill="white" stroke="#2489D3" stroke-width="0.35"/>
<path d="M1.46661 18.8918H1.29161V19.0668V24.9334C1.29161 25.2416 1.04142 25.4917 0.733305 25.4917C0.425188 25.4917 0.175 25.2416 0.175 24.9334V16.8668C0.175 16.5586 0.425208 16.3085 0.733391 16.3085C1.04151 16.3085 1.2917 16.5587 1.2917 16.8668V17.6002V17.7752H1.4667H9.5333C9.84142 17.7752 10.0916 18.0253 10.0916 18.3335C10.0916 18.6416 9.84142 18.8918 9.5333 18.8918H1.46661Z" fill="white" stroke="#2489D3" stroke-width="0.35"/>
</svg>
