<svg id="Layer_1" width="100" height="28" data-name="Layer 1" xmlns="http://www.w3.org/2000/svg" viewBox="0 0 1018.67 280.06"><defs><style>.cls-1{fill:#fff;}</style></defs><title>logo geency</title><path class="cls-1" d="M541,968.35a94.53,94.53,0,0,0-2.56,21c0,28.71,17.27,42.66,52.81,42.66a79.46,79.46,0,0,0,31-5.81L630,990.53H597.2L604.7,954h79.49l-21.28,101-.75.45c-22.24,13.27-49.52,20-81.06,20-18.2,0-34.39-3.29-48.13-9.76a74.27,74.27,0,0,1-32.31-28.46c-7.61-12.34-11.46-27.08-11.46-43.82a117.06,117.06,0,0,1,3-26c4.47-21.63,13.14-40.78,25.75-56.91a128,128,0,0,1,47-37.41C583.43,864.5,604,860.09,626,860.09c14.8,0,27.81,1.54,38.67,4.57a82.45,82.45,0,0,1,29,14.42l1,.77L685,925.79l-2.6-2.53a59.43,59.43,0,0,0-24.28-14.16c-9.53-2.93-21.09-4.41-34.35-4.41-21.11,0-39.34,5.72-54.18,17S545.13,948.63,541,968.35Z" transform="translate(-489.2 -860.09)"/><path class="cls-1" d="M838.82,948.93c-5.07-9.2-12.82-16.63-23-22.09s-22.84-8.19-37.69-8.19c-28,0-50.54,7-67.14,20.86S683.33,972.8,678,997.36a87,87,0,0,0-1.83,16.89c0,19.38,7.23,34.65,21.49,45.4,14.09,10.62,32.56,16,54.91,16a218,218,0,0,0,33.91-2.73c11.48-1.81,21.21-4.27,28.92-7.31l1-.39,7.9-36.37-3.4,1.22a146.91,146.91,0,0,1-26.63,6.5,186.26,186.26,0,0,1-28.79,2.38c-19,0-31.9-3.46-38.44-10.3a19,19,0,0,1-5.19-13.3H840.33l4.23-19.85a71.38,71.38,0,0,0,1.86-16A62.57,62.57,0,0,0,838.82,948.93Zm-68.5,6.72c20.45,0,30.4,7.2,30.4,22a38,38,0,0,1-.35,4.3H728.93a36.73,36.73,0,0,1,13.88-18.56C750.13,958.25,759.39,955.65,770.32,955.65Z" transform="translate(-489.2 -860.09)"/><path class="cls-1" d="M1008,948.93c-5.07-9.2-12.81-16.63-23-22.09s-22.84-8.19-37.7-8.19c-28,0-50.54,7-67.13,20.86s-27.65,33.29-32.93,57.85a87,87,0,0,0-1.84,16.89c0,19.38,7.23,34.65,21.5,45.4,14.09,10.62,32.56,16,54.9,16a218,218,0,0,0,33.91-2.73c11.49-1.81,21.22-4.27,28.93-7.31l1-.39,7.89-36.37-3.39,1.22a146.82,146.82,0,0,1-26.64,6.5,186.16,186.16,0,0,1-28.79,2.38c-19,0-31.89-3.46-38.43-10.3a18.93,18.93,0,0,1-5.19-13.3h118.44l4.23-19.85a71.37,71.37,0,0,0,1.85-16A62.46,62.46,0,0,0,1008,948.93Zm-68.5,6.72c20.46,0,30.4,7.2,30.4,22a38,38,0,0,1-.35,4.3H898.12A36.81,36.81,0,0,1,912,963.39C919.33,958.25,928.58,955.65,939.51,955.65Z" transform="translate(-489.2 -860.09)"/><path class="cls-1" d="M1181.31,965a80.85,80.85,0,0,1-1.53,14.16l-19.25,91.94h-49.39l18.51-87.61a44.24,44.24,0,0,0,1.16-10.09c0-5.42-1.43-9.23-4.37-11.66s-7.94-3.74-14.63-3.74a48.16,48.16,0,0,0-21.61,5.34,64,64,0,0,0-19.44,15.48l-19.43,92.28h-49.39l31.45-148h47.91l-3.17,14.35a86,86,0,0,1,23.23-13.17,87,87,0,0,1,30.55-5.68c16.08,0,28.48,4.39,36.84,13.06S1181.31,951.58,1181.31,965Z" transform="translate(-489.2 -860.09)"/><path class="cls-1" d="M1339.52,933l-8.45,40.23-2.56-2.18a49.9,49.9,0,0,0-19.33-9.79,96.82,96.82,0,0,0-25.57-3.23c-13.52,0-25.2,3.31-34.72,9.85s-15.65,16.55-18.53,30a52.73,52.73,0,0,0-1.45,12.78c0,9.19,2.81,15.62,8.59,19.66s15.38,6.24,28.11,6.24a106.86,106.86,0,0,0,53.31-13.84l3.86-2.19-8.61,40.64-.79.44c-16.83,9.32-37.85,14-62.47,14-21.17,0-38.74-5.34-52.23-15.87-13.65-10.65-20.57-25.77-20.57-44.93a90.36,90.36,0,0,1,1.84-17.79c5.28-24.8,17.24-44.28,35.56-57.91s41.29-20.5,68.4-20.5a136.17,136.17,0,0,1,31.36,3.35c9.43,2.26,17.25,5.71,23.24,10.26Z" transform="translate(-489.2 -860.09)"/><path class="cls-1" d="M1507.87,923.15l-29,137.11c-5.47,25.93-16.6,45.95-33.08,59.49s-41.05,20.4-73,20.4a153.46,153.46,0,0,1-28.87-2.74c-9.55-1.82-17.4-4.31-23.34-7.38l-1.35-.7L1327,1092l2.32,1.15c13.46,6.63,30.43,10,50.42,10,13.84,0,24.55-3.17,31.84-9.42s13.07-16,16.94-28.76l3.16-10.6a80.3,80.3,0,0,1-22.31,12.46,89.28,89.28,0,0,1-30.54,5.52c-15.67,0-28-4.28-36.64-12.72s-13-19.78-13-33.68a64.7,64.7,0,0,1,1.55-14.87l18.63-87.93h49.39l-17.92,84a50.33,50.33,0,0,0-1.15,10.38c0,5.53,1.46,9.5,4.34,11.78s8.05,3.62,15,3.62a49.21,49.21,0,0,0,21.62-5.2,59.08,59.08,0,0,0,19.12-15.3l18.83-89.3Z" transform="translate(-489.2 -860.09)"/></svg>